<mxfile host="app.diagrams.net" modified="2020-10-25T20:56:47.032Z" agent="5.0 (Windows NT 10.0; Win64; x64) AppleWebKit/537.36 (KHTML, like Gecko) Chrome/86.0.4240.111 Safari/537.36" etag="WxeG7A04vpFIBzOOyVQe" version="13.8.2" type="github">
  <diagram id="R2lEEEUBdFMjLlhIrx00" name="Page-1">
    <mxGraphModel dx="1968" dy="1332" grid="0" gridSize="10" guides="1" tooltips="1" connect="1" arrows="1" fold="1" page="1" pageScale="1" pageWidth="1100" pageHeight="850" background="#FFFFFF" math="0" shadow="0" extFonts="Permanent Marker^https://fonts.googleapis.com/css?family=Permanent+Marker">
      <root>
        <mxCell id="0" />
        <mxCell id="1" parent="0" />
        <mxCell id="PevNx_j6ePKCeGL_cuYu-1" value="Employee" style="whiteSpace=wrap;html=1;align=center;" vertex="1" parent="1">
          <mxGeometry x="-110" y="-385" width="100" height="40" as="geometry" />
        </mxCell>
        <mxCell id="PevNx_j6ePKCeGL_cuYu-7" value="" style="endArrow=none;html=1;rounded=0;" edge="1" parent="1" target="PevNx_j6ePKCeGL_cuYu-8">
          <mxGeometry relative="1" as="geometry">
            <mxPoint x="-61" y="-385" as="sourcePoint" />
            <mxPoint x="-61" y="-465" as="targetPoint" />
            <Array as="points" />
          </mxGeometry>
        </mxCell>
        <mxCell id="PevNx_j6ePKCeGL_cuYu-8" value="employee_num" style="ellipse;whiteSpace=wrap;html=1;align=center;fontStyle=4;" vertex="1" parent="1">
          <mxGeometry x="-110" y="-645" width="100" height="40" as="geometry" />
        </mxCell>
        <mxCell id="PevNx_j6ePKCeGL_cuYu-9" value="" style="endArrow=none;html=1;rounded=0;exitX=0.75;exitY=0;exitDx=0;exitDy=0;entryX=0.42;entryY=1.05;entryDx=0;entryDy=0;entryPerimeter=0;" edge="1" parent="1" source="PevNx_j6ePKCeGL_cuYu-1" target="PevNx_j6ePKCeGL_cuYu-11">
          <mxGeometry relative="1" as="geometry">
            <mxPoint x="40" y="-435" as="sourcePoint" />
            <mxPoint y="-555" as="targetPoint" />
          </mxGeometry>
        </mxCell>
        <mxCell id="PevNx_j6ePKCeGL_cuYu-11" value="name" style="ellipse;whiteSpace=wrap;html=1;align=center;" vertex="1" parent="1">
          <mxGeometry x="-20" y="-595" width="100" height="40" as="geometry" />
        </mxCell>
        <mxCell id="PevNx_j6ePKCeGL_cuYu-12" value="address" style="ellipse;whiteSpace=wrap;html=1;align=center;" vertex="1" parent="1">
          <mxGeometry x="110" y="-575" width="100" height="40" as="geometry" />
        </mxCell>
        <mxCell id="PevNx_j6ePKCeGL_cuYu-13" value="" style="endArrow=none;html=1;rounded=0;exitX=0.87;exitY=0;exitDx=0;exitDy=0;exitPerimeter=0;entryX=0;entryY=0.5;entryDx=0;entryDy=0;" edge="1" parent="1" source="PevNx_j6ePKCeGL_cuYu-1" target="PevNx_j6ePKCeGL_cuYu-12">
          <mxGeometry relative="1" as="geometry">
            <mxPoint x="-70" y="-475" as="sourcePoint" />
            <mxPoint x="90" y="-475" as="targetPoint" />
          </mxGeometry>
        </mxCell>
        <mxCell id="PevNx_j6ePKCeGL_cuYu-14" value="email" style="ellipse;whiteSpace=wrap;html=1;align=center;" vertex="1" parent="1">
          <mxGeometry x="-190" y="-595" width="100" height="40" as="geometry" />
        </mxCell>
        <mxCell id="PevNx_j6ePKCeGL_cuYu-15" value="hire_date" style="ellipse;whiteSpace=wrap;html=1;align=center;" vertex="1" parent="1">
          <mxGeometry x="-300" y="-645" width="100" height="40" as="geometry" />
        </mxCell>
        <mxCell id="PevNx_j6ePKCeGL_cuYu-17" value="" style="endArrow=none;html=1;rounded=0;exitX=0.58;exitY=1.025;exitDx=0;exitDy=0;exitPerimeter=0;entryX=0.25;entryY=0;entryDx=0;entryDy=0;" edge="1" parent="1" source="PevNx_j6ePKCeGL_cuYu-14" target="PevNx_j6ePKCeGL_cuYu-1">
          <mxGeometry relative="1" as="geometry">
            <mxPoint x="-250" y="-445" as="sourcePoint" />
            <mxPoint x="-90" y="-445" as="targetPoint" />
          </mxGeometry>
        </mxCell>
        <mxCell id="PevNx_j6ePKCeGL_cuYu-19" value="" style="endArrow=none;html=1;rounded=0;entryX=0;entryY=0;entryDx=0;entryDy=0;exitX=0.7;exitY=0.975;exitDx=0;exitDy=0;exitPerimeter=0;" edge="1" parent="1" source="PevNx_j6ePKCeGL_cuYu-15" target="PevNx_j6ePKCeGL_cuYu-1">
          <mxGeometry relative="1" as="geometry">
            <mxPoint x="-240" y="-475" as="sourcePoint" />
            <mxPoint x="-80" y="-475" as="targetPoint" />
          </mxGeometry>
        </mxCell>
        <mxCell id="PevNx_j6ePKCeGL_cuYu-21" value="" style="endArrow=none;html=1;rounded=0;entryX=0.5;entryY=0;entryDx=0;entryDy=0;" edge="1" parent="1" target="PevNx_j6ePKCeGL_cuYu-11">
          <mxGeometry relative="1" as="geometry">
            <mxPoint x="20" y="-675" as="sourcePoint" />
            <mxPoint x="40" y="-595" as="targetPoint" />
          </mxGeometry>
        </mxCell>
        <mxCell id="PevNx_j6ePKCeGL_cuYu-22" value="" style="endArrow=none;html=1;rounded=0;" edge="1" parent="1">
          <mxGeometry relative="1" as="geometry">
            <mxPoint x="50" y="-675" as="sourcePoint" />
            <mxPoint x="30" y="-597" as="targetPoint" />
          </mxGeometry>
        </mxCell>
        <mxCell id="PevNx_j6ePKCeGL_cuYu-23" value="first_name" style="ellipse;whiteSpace=wrap;html=1;align=center;" vertex="1" parent="1">
          <mxGeometry x="-60" y="-705" width="100" height="40" as="geometry" />
        </mxCell>
        <mxCell id="PevNx_j6ePKCeGL_cuYu-24" value="last_name" style="ellipse;whiteSpace=wrap;html=1;align=center;" vertex="1" parent="1">
          <mxGeometry x="40" y="-705" width="100" height="40" as="geometry" />
        </mxCell>
        <mxCell id="PevNx_j6ePKCeGL_cuYu-25" value="" style="endArrow=none;html=1;rounded=0;exitX=1;exitY=1;exitDx=0;exitDy=0;" edge="1" parent="1" source="PevNx_j6ePKCeGL_cuYu-26">
          <mxGeometry relative="1" as="geometry">
            <mxPoint x="-270" y="-355" as="sourcePoint" />
            <mxPoint x="-110" y="-365" as="targetPoint" />
          </mxGeometry>
        </mxCell>
        <mxCell id="PevNx_j6ePKCeGL_cuYu-26" value="phone_num" style="ellipse;whiteSpace=wrap;html=1;align=center;" vertex="1" parent="1">
          <mxGeometry x="-340" y="-534" width="100" height="40" as="geometry" />
        </mxCell>
        <mxCell id="PevNx_j6ePKCeGL_cuYu-27" value="" style="endArrow=none;html=1;rounded=0;" edge="1" parent="1">
          <mxGeometry relative="1" as="geometry">
            <mxPoint x="-410" y="-554" as="sourcePoint" />
            <mxPoint x="-330" y="-524" as="targetPoint" />
          </mxGeometry>
        </mxCell>
        <mxCell id="PevNx_j6ePKCeGL_cuYu-28" value="" style="endArrow=none;html=1;rounded=0;entryX=0.1;entryY=0.25;entryDx=0;entryDy=0;entryPerimeter=0;" edge="1" parent="1">
          <mxGeometry relative="1" as="geometry">
            <mxPoint x="-430" y="-509" as="sourcePoint" />
            <mxPoint x="-340" y="-509" as="targetPoint" />
          </mxGeometry>
        </mxCell>
        <mxCell id="PevNx_j6ePKCeGL_cuYu-29" value="" style="endArrow=none;html=1;rounded=0;entryX=0.1;entryY=0.25;entryDx=0;entryDy=0;entryPerimeter=0;" edge="1" parent="1">
          <mxGeometry relative="1" as="geometry">
            <mxPoint x="-400" y="-464" as="sourcePoint" />
            <mxPoint x="-320" y="-499" as="targetPoint" />
          </mxGeometry>
        </mxCell>
        <mxCell id="PevNx_j6ePKCeGL_cuYu-30" value="work_num" style="ellipse;whiteSpace=wrap;html=1;align=center;" vertex="1" parent="1">
          <mxGeometry x="-490" y="-584" width="100" height="40" as="geometry" />
        </mxCell>
        <mxCell id="PevNx_j6ePKCeGL_cuYu-31" value="cell_num" style="ellipse;whiteSpace=wrap;html=1;align=center;" vertex="1" parent="1">
          <mxGeometry x="-520" y="-524" width="100" height="40" as="geometry" />
        </mxCell>
        <mxCell id="PevNx_j6ePKCeGL_cuYu-32" value="home_num" style="ellipse;whiteSpace=wrap;html=1;align=center;" vertex="1" parent="1">
          <mxGeometry x="-490" y="-474" width="100" height="40" as="geometry" />
        </mxCell>
        <mxCell id="PevNx_j6ePKCeGL_cuYu-33" value="" style="endArrow=none;html=1;rounded=0;exitX=0.5;exitY=0;exitDx=0;exitDy=0;" edge="1" parent="1" source="PevNx_j6ePKCeGL_cuYu-12">
          <mxGeometry relative="1" as="geometry">
            <mxPoint x="120" y="-605" as="sourcePoint" />
            <mxPoint x="180" y="-635" as="targetPoint" />
          </mxGeometry>
        </mxCell>
        <mxCell id="PevNx_j6ePKCeGL_cuYu-34" value="" style="endArrow=none;html=1;rounded=0;exitX=1;exitY=0;exitDx=0;exitDy=0;" edge="1" parent="1" source="PevNx_j6ePKCeGL_cuYu-12">
          <mxGeometry relative="1" as="geometry">
            <mxPoint x="200" y="-575" as="sourcePoint" />
            <mxPoint x="230" y="-625" as="targetPoint" />
          </mxGeometry>
        </mxCell>
        <mxCell id="PevNx_j6ePKCeGL_cuYu-35" value="" style="endArrow=none;html=1;rounded=0;exitX=1;exitY=0.5;exitDx=0;exitDy=0;" edge="1" parent="1" source="PevNx_j6ePKCeGL_cuYu-12">
          <mxGeometry relative="1" as="geometry">
            <mxPoint x="235" y="-555.5" as="sourcePoint" />
            <mxPoint x="285" y="-555.5" as="targetPoint" />
          </mxGeometry>
        </mxCell>
        <mxCell id="PevNx_j6ePKCeGL_cuYu-36" value="" style="endArrow=none;html=1;rounded=0;exitX=1;exitY=1;exitDx=0;exitDy=0;" edge="1" parent="1" source="PevNx_j6ePKCeGL_cuYu-12" target="PevNx_j6ePKCeGL_cuYu-41">
          <mxGeometry relative="1" as="geometry">
            <mxPoint x="185" y="-545" as="sourcePoint" />
            <mxPoint x="240" y="-505" as="targetPoint" />
          </mxGeometry>
        </mxCell>
        <mxCell id="PevNx_j6ePKCeGL_cuYu-37" value="" style="endArrow=none;html=1;rounded=0;" edge="1" parent="1">
          <mxGeometry relative="1" as="geometry">
            <mxPoint x="190" y="-465" as="sourcePoint" />
            <mxPoint x="160" y="-535" as="targetPoint" />
          </mxGeometry>
        </mxCell>
        <mxCell id="PevNx_j6ePKCeGL_cuYu-38" value="street" style="ellipse;whiteSpace=wrap;html=1;align=center;" vertex="1" parent="1">
          <mxGeometry x="120" y="-675" width="100" height="40" as="geometry" />
        </mxCell>
        <mxCell id="PevNx_j6ePKCeGL_cuYu-39" value="city" style="ellipse;whiteSpace=wrap;html=1;align=center;" vertex="1" parent="1">
          <mxGeometry x="220" y="-655" width="100" height="40" as="geometry" />
        </mxCell>
        <mxCell id="PevNx_j6ePKCeGL_cuYu-40" value="state" style="ellipse;whiteSpace=wrap;html=1;align=center;" vertex="1" parent="1">
          <mxGeometry x="280" y="-575" width="100" height="40" as="geometry" />
        </mxCell>
        <mxCell id="PevNx_j6ePKCeGL_cuYu-41" value="zipcode" style="ellipse;whiteSpace=wrap;html=1;align=center;" vertex="1" parent="1">
          <mxGeometry x="220" y="-515" width="100" height="40" as="geometry" />
        </mxCell>
        <mxCell id="PevNx_j6ePKCeGL_cuYu-42" value="unit_num" style="ellipse;whiteSpace=wrap;html=1;align=center;" vertex="1" parent="1">
          <mxGeometry x="140" y="-475" width="100" height="40" as="geometry" />
        </mxCell>
        <mxCell id="PevNx_j6ePKCeGL_cuYu-43" value="supervised_by" style="shape=rhombus;perimeter=rhombusPerimeter;whiteSpace=wrap;html=1;align=center;" vertex="1" parent="1">
          <mxGeometry x="-130" y="-200" width="140" height="80" as="geometry" />
        </mxCell>
        <mxCell id="PevNx_j6ePKCeGL_cuYu-45" value="" style="endArrow=none;html=1;rounded=0;entryX=1;entryY=0.5;entryDx=0;entryDy=0;" edge="1" parent="1" target="PevNx_j6ePKCeGL_cuYu-43">
          <mxGeometry relative="1" as="geometry">
            <mxPoint x="-10" y="-355" as="sourcePoint" />
            <mxPoint x="120" y="-345" as="targetPoint" />
            <Array as="points">
              <mxPoint x="10" y="-355" />
            </Array>
          </mxGeometry>
        </mxCell>
        <mxCell id="PevNx_j6ePKCeGL_cuYu-47" value="property_owner" style="whiteSpace=wrap;html=1;align=center;" vertex="1" parent="1">
          <mxGeometry x="1310" y="-400" width="100" height="40" as="geometry" />
        </mxCell>
        <mxCell id="PevNx_j6ePKCeGL_cuYu-48" value="" style="endArrow=none;html=1;rounded=0;exitX=0.5;exitY=0;exitDx=0;exitDy=0;" edge="1" target="PevNx_j6ePKCeGL_cuYu-49" parent="1" source="PevNx_j6ePKCeGL_cuYu-47">
          <mxGeometry relative="1" as="geometry">
            <mxPoint x="1360" y="-420" as="sourcePoint" />
            <mxPoint x="1359" y="-510" as="targetPoint" />
            <Array as="points" />
          </mxGeometry>
        </mxCell>
        <mxCell id="PevNx_j6ePKCeGL_cuYu-49" value="prop_own_num" style="ellipse;whiteSpace=wrap;html=1;align=center;fontStyle=4;" vertex="1" parent="1">
          <mxGeometry x="1310" y="-690" width="100" height="40" as="geometry" />
        </mxCell>
        <mxCell id="PevNx_j6ePKCeGL_cuYu-50" value="" style="endArrow=none;html=1;rounded=0;exitX=0.75;exitY=0;exitDx=0;exitDy=0;entryX=0.42;entryY=1.05;entryDx=0;entryDy=0;entryPerimeter=0;" edge="1" source="PevNx_j6ePKCeGL_cuYu-47" target="PevNx_j6ePKCeGL_cuYu-51" parent="1">
          <mxGeometry relative="1" as="geometry">
            <mxPoint x="1460" y="-480" as="sourcePoint" />
            <mxPoint x="1420" y="-600" as="targetPoint" />
          </mxGeometry>
        </mxCell>
        <mxCell id="PevNx_j6ePKCeGL_cuYu-51" value="name" style="ellipse;whiteSpace=wrap;html=1;align=center;" vertex="1" parent="1">
          <mxGeometry x="1400" y="-640" width="100" height="40" as="geometry" />
        </mxCell>
        <mxCell id="PevNx_j6ePKCeGL_cuYu-52" value="address" style="ellipse;whiteSpace=wrap;html=1;align=center;" vertex="1" parent="1">
          <mxGeometry x="1530" y="-620" width="100" height="40" as="geometry" />
        </mxCell>
        <mxCell id="PevNx_j6ePKCeGL_cuYu-53" value="" style="endArrow=none;html=1;rounded=0;exitX=0.87;exitY=0;exitDx=0;exitDy=0;exitPerimeter=0;entryX=0;entryY=0.5;entryDx=0;entryDy=0;" edge="1" source="PevNx_j6ePKCeGL_cuYu-47" target="PevNx_j6ePKCeGL_cuYu-52" parent="1">
          <mxGeometry relative="1" as="geometry">
            <mxPoint x="1350" y="-520" as="sourcePoint" />
            <mxPoint x="1510" y="-520" as="targetPoint" />
          </mxGeometry>
        </mxCell>
        <mxCell id="PevNx_j6ePKCeGL_cuYu-54" value="email" style="ellipse;whiteSpace=wrap;html=1;align=center;" vertex="1" parent="1">
          <mxGeometry x="1230" y="-640" width="100" height="40" as="geometry" />
        </mxCell>
        <mxCell id="PevNx_j6ePKCeGL_cuYu-55" value="belongs_corp" style="ellipse;whiteSpace=wrap;html=1;align=center;" vertex="1" parent="1">
          <mxGeometry x="1110" y="-630" width="100" height="40" as="geometry" />
        </mxCell>
        <mxCell id="PevNx_j6ePKCeGL_cuYu-57" value="" style="endArrow=none;html=1;rounded=0;exitX=0.58;exitY=1.025;exitDx=0;exitDy=0;exitPerimeter=0;entryX=0.25;entryY=0;entryDx=0;entryDy=0;" edge="1" source="PevNx_j6ePKCeGL_cuYu-54" target="PevNx_j6ePKCeGL_cuYu-47" parent="1">
          <mxGeometry relative="1" as="geometry">
            <mxPoint x="1170" y="-490" as="sourcePoint" />
            <mxPoint x="1330" y="-490" as="targetPoint" />
          </mxGeometry>
        </mxCell>
        <mxCell id="PevNx_j6ePKCeGL_cuYu-58" value="" style="endArrow=none;html=1;rounded=0;entryX=0;entryY=0;entryDx=0;entryDy=0;exitX=0.631;exitY=0.972;exitDx=0;exitDy=0;exitPerimeter=0;" edge="1" source="PevNx_j6ePKCeGL_cuYu-55" parent="1">
          <mxGeometry relative="1" as="geometry">
            <mxPoint x="1200" y="-649.5000000000001" as="sourcePoint" />
            <mxPoint x="1320" y="-398.5" as="targetPoint" />
          </mxGeometry>
        </mxCell>
        <mxCell id="PevNx_j6ePKCeGL_cuYu-60" value="" style="endArrow=none;html=1;rounded=0;entryX=0.5;entryY=0;entryDx=0;entryDy=0;" edge="1" target="PevNx_j6ePKCeGL_cuYu-51" parent="1">
          <mxGeometry relative="1" as="geometry">
            <mxPoint x="1440" y="-720" as="sourcePoint" />
            <mxPoint x="1460" y="-640" as="targetPoint" />
          </mxGeometry>
        </mxCell>
        <mxCell id="PevNx_j6ePKCeGL_cuYu-61" value="" style="endArrow=none;html=1;rounded=0;" edge="1" parent="1">
          <mxGeometry relative="1" as="geometry">
            <mxPoint x="1470" y="-720" as="sourcePoint" />
            <mxPoint x="1450" y="-642" as="targetPoint" />
          </mxGeometry>
        </mxCell>
        <mxCell id="PevNx_j6ePKCeGL_cuYu-62" value="first_name" style="ellipse;whiteSpace=wrap;html=1;align=center;" vertex="1" parent="1">
          <mxGeometry x="1360" y="-750" width="100" height="40" as="geometry" />
        </mxCell>
        <mxCell id="PevNx_j6ePKCeGL_cuYu-63" value="last_name" style="ellipse;whiteSpace=wrap;html=1;align=center;" vertex="1" parent="1">
          <mxGeometry x="1460" y="-750" width="100" height="40" as="geometry" />
        </mxCell>
        <mxCell id="PevNx_j6ePKCeGL_cuYu-64" value="" style="endArrow=none;html=1;rounded=0;exitX=1;exitY=1;exitDx=0;exitDy=0;entryX=0;entryY=0.5;entryDx=0;entryDy=0;" edge="1" source="PevNx_j6ePKCeGL_cuYu-65" parent="1">
          <mxGeometry relative="1" as="geometry">
            <mxPoint x="1150" y="-419" as="sourcePoint" />
            <mxPoint x="1310" y="-399" as="targetPoint" />
          </mxGeometry>
        </mxCell>
        <mxCell id="PevNx_j6ePKCeGL_cuYu-65" value="phone_num" style="ellipse;whiteSpace=wrap;html=1;align=center;" vertex="1" parent="1">
          <mxGeometry x="1070" y="-544" width="100" height="40" as="geometry" />
        </mxCell>
        <mxCell id="PevNx_j6ePKCeGL_cuYu-66" value="" style="endArrow=none;html=1;rounded=0;exitX=1;exitY=1;exitDx=0;exitDy=0;" edge="1" parent="1" source="PevNx_j6ePKCeGL_cuYu-69">
          <mxGeometry relative="1" as="geometry">
            <mxPoint x="1000" y="-564" as="sourcePoint" />
            <mxPoint x="1080" y="-534" as="targetPoint" />
          </mxGeometry>
        </mxCell>
        <mxCell id="PevNx_j6ePKCeGL_cuYu-67" value="" style="endArrow=none;html=1;rounded=0;entryX=0.1;entryY=0.25;entryDx=0;entryDy=0;entryPerimeter=0;exitX=1;exitY=1;exitDx=0;exitDy=0;" edge="1" parent="1" source="PevNx_j6ePKCeGL_cuYu-70">
          <mxGeometry relative="1" as="geometry">
            <mxPoint x="980.0000000000002" y="-529" as="sourcePoint" />
            <mxPoint x="1070" y="-529" as="targetPoint" />
          </mxGeometry>
        </mxCell>
        <mxCell id="PevNx_j6ePKCeGL_cuYu-68" value="" style="endArrow=none;html=1;rounded=0;entryX=0.1;entryY=0.25;entryDx=0;entryDy=0;entryPerimeter=0;exitX=1;exitY=0.5;exitDx=0;exitDy=0;" edge="1" parent="1" source="PevNx_j6ePKCeGL_cuYu-71">
          <mxGeometry relative="1" as="geometry">
            <mxPoint x="1010" y="-474" as="sourcePoint" />
            <mxPoint x="1090" y="-509" as="targetPoint" />
          </mxGeometry>
        </mxCell>
        <mxCell id="PevNx_j6ePKCeGL_cuYu-69" value="work_num" style="ellipse;whiteSpace=wrap;html=1;align=center;" vertex="1" parent="1">
          <mxGeometry x="960" y="-639" width="100" height="40" as="geometry" />
        </mxCell>
        <mxCell id="PevNx_j6ePKCeGL_cuYu-70" value="cell_num" style="ellipse;whiteSpace=wrap;html=1;align=center;" vertex="1" parent="1">
          <mxGeometry x="890" y="-599" width="100" height="40" as="geometry" />
        </mxCell>
        <mxCell id="PevNx_j6ePKCeGL_cuYu-71" value="home_num" style="ellipse;whiteSpace=wrap;html=1;align=center;" vertex="1" parent="1">
          <mxGeometry x="910" y="-544" width="100" height="40" as="geometry" />
        </mxCell>
        <mxCell id="PevNx_j6ePKCeGL_cuYu-72" value="" style="endArrow=none;html=1;rounded=0;exitX=0.5;exitY=0;exitDx=0;exitDy=0;" edge="1" source="PevNx_j6ePKCeGL_cuYu-52" parent="1">
          <mxGeometry relative="1" as="geometry">
            <mxPoint x="1540" y="-650" as="sourcePoint" />
            <mxPoint x="1600" y="-680" as="targetPoint" />
          </mxGeometry>
        </mxCell>
        <mxCell id="PevNx_j6ePKCeGL_cuYu-73" value="" style="endArrow=none;html=1;rounded=0;exitX=1;exitY=0;exitDx=0;exitDy=0;" edge="1" source="PevNx_j6ePKCeGL_cuYu-52" parent="1">
          <mxGeometry relative="1" as="geometry">
            <mxPoint x="1620" y="-620" as="sourcePoint" />
            <mxPoint x="1650" y="-670" as="targetPoint" />
          </mxGeometry>
        </mxCell>
        <mxCell id="PevNx_j6ePKCeGL_cuYu-74" value="" style="endArrow=none;html=1;rounded=0;exitX=1;exitY=0.5;exitDx=0;exitDy=0;" edge="1" source="PevNx_j6ePKCeGL_cuYu-52" parent="1">
          <mxGeometry relative="1" as="geometry">
            <mxPoint x="1655" y="-600.5" as="sourcePoint" />
            <mxPoint x="1705" y="-600.5" as="targetPoint" />
          </mxGeometry>
        </mxCell>
        <mxCell id="PevNx_j6ePKCeGL_cuYu-75" value="" style="endArrow=none;html=1;rounded=0;exitX=1;exitY=1;exitDx=0;exitDy=0;" edge="1" source="PevNx_j6ePKCeGL_cuYu-52" target="PevNx_j6ePKCeGL_cuYu-80" parent="1">
          <mxGeometry relative="1" as="geometry">
            <mxPoint x="1605" y="-590" as="sourcePoint" />
            <mxPoint x="1660" y="-550" as="targetPoint" />
          </mxGeometry>
        </mxCell>
        <mxCell id="PevNx_j6ePKCeGL_cuYu-76" value="" style="endArrow=none;html=1;rounded=0;" edge="1" parent="1">
          <mxGeometry relative="1" as="geometry">
            <mxPoint x="1610" y="-510" as="sourcePoint" />
            <mxPoint x="1580" y="-580" as="targetPoint" />
          </mxGeometry>
        </mxCell>
        <mxCell id="PevNx_j6ePKCeGL_cuYu-77" value="street" style="ellipse;whiteSpace=wrap;html=1;align=center;" vertex="1" parent="1">
          <mxGeometry x="1540" y="-720" width="100" height="40" as="geometry" />
        </mxCell>
        <mxCell id="PevNx_j6ePKCeGL_cuYu-78" value="city" style="ellipse;whiteSpace=wrap;html=1;align=center;" vertex="1" parent="1">
          <mxGeometry x="1640" y="-700" width="100" height="40" as="geometry" />
        </mxCell>
        <mxCell id="PevNx_j6ePKCeGL_cuYu-79" value="state" style="ellipse;whiteSpace=wrap;html=1;align=center;" vertex="1" parent="1">
          <mxGeometry x="1700" y="-620" width="100" height="40" as="geometry" />
        </mxCell>
        <mxCell id="PevNx_j6ePKCeGL_cuYu-80" value="zipcode" style="ellipse;whiteSpace=wrap;html=1;align=center;" vertex="1" parent="1">
          <mxGeometry x="1640" y="-560" width="100" height="40" as="geometry" />
        </mxCell>
        <mxCell id="PevNx_j6ePKCeGL_cuYu-81" value="unit_num" style="ellipse;whiteSpace=wrap;html=1;align=center;" vertex="1" parent="1">
          <mxGeometry x="1560" y="-520" width="100" height="40" as="geometry" />
        </mxCell>
        <mxCell id="PevNx_j6ePKCeGL_cuYu-84" value="partnered_with" style="shape=rhombus;perimeter=rhombusPerimeter;whiteSpace=wrap;html=1;align=center;" vertex="1" parent="1">
          <mxGeometry x="880" y="-370" width="120" height="60" as="geometry" />
        </mxCell>
        <mxCell id="PevNx_j6ePKCeGL_cuYu-85" value="" style="endArrow=none;html=1;rounded=0;entryX=0;entryY=0.5;entryDx=0;entryDy=0;exitX=1;exitY=0.5;exitDx=0;exitDy=0;" edge="1" parent="1" source="PevNx_j6ePKCeGL_cuYu-175" target="PevNx_j6ePKCeGL_cuYu-84">
          <mxGeometry relative="1" as="geometry">
            <mxPoint x="530" y="-325" as="sourcePoint" />
            <mxPoint x="690" y="-315.29999999999995" as="targetPoint" />
          </mxGeometry>
        </mxCell>
        <mxCell id="PevNx_j6ePKCeGL_cuYu-87" value="" style="endArrow=none;html=1;rounded=0;entryX=0;entryY=0.75;entryDx=0;entryDy=0;exitX=1;exitY=0.5;exitDx=0;exitDy=0;" edge="1" parent="1" source="PevNx_j6ePKCeGL_cuYu-84" target="PevNx_j6ePKCeGL_cuYu-47">
          <mxGeometry relative="1" as="geometry">
            <mxPoint x="706.0869565217395" y="-398.0434782608695" as="sourcePoint" />
            <mxPoint x="870" y="-400" as="targetPoint" />
          </mxGeometry>
        </mxCell>
        <mxCell id="PevNx_j6ePKCeGL_cuYu-89" value="" style="endArrow=none;html=1;rounded=0;" edge="1" parent="1">
          <mxGeometry relative="1" as="geometry">
            <mxPoint x="1120" y="-690" as="sourcePoint" />
            <mxPoint x="1148" y="-633" as="targetPoint" />
          </mxGeometry>
        </mxCell>
        <mxCell id="PevNx_j6ePKCeGL_cuYu-91" value="corp_name" style="ellipse;whiteSpace=wrap;html=1;align=center;" vertex="1" parent="1">
          <mxGeometry x="1070" y="-720" width="100" height="40" as="geometry" />
        </mxCell>
        <mxCell id="PevNx_j6ePKCeGL_cuYu-92" value="Client" style="whiteSpace=wrap;html=1;align=center;" vertex="1" parent="1">
          <mxGeometry x="-445" y="-87.5" width="100" height="40" as="geometry" />
        </mxCell>
        <mxCell id="PevNx_j6ePKCeGL_cuYu-93" value="" style="endArrow=none;html=1;rounded=0;exitX=0.5;exitY=1;exitDx=0;exitDy=0;" edge="1" target="PevNx_j6ePKCeGL_cuYu-94" parent="1" source="PevNx_j6ePKCeGL_cuYu-92">
          <mxGeometry relative="1" as="geometry">
            <mxPoint x="-396" y="-27.5" as="sourcePoint" />
            <mxPoint x="-396" y="-167.5" as="targetPoint" />
            <Array as="points" />
          </mxGeometry>
        </mxCell>
        <mxCell id="PevNx_j6ePKCeGL_cuYu-94" value="client_num" style="ellipse;whiteSpace=wrap;html=1;align=center;fontStyle=4;" vertex="1" parent="1">
          <mxGeometry x="-455" y="122.5" width="100" height="40" as="geometry" />
        </mxCell>
        <mxCell id="PevNx_j6ePKCeGL_cuYu-95" value="" style="endArrow=none;html=1;rounded=0;exitX=0.75;exitY=1;exitDx=0;exitDy=0;entryX=0.42;entryY=1.05;entryDx=0;entryDy=0;entryPerimeter=0;" edge="1" source="PevNx_j6ePKCeGL_cuYu-92" target="PevNx_j6ePKCeGL_cuYu-96" parent="1">
          <mxGeometry relative="1" as="geometry">
            <mxPoint x="-295" y="-137.5" as="sourcePoint" />
            <mxPoint x="-335" y="-257.5" as="targetPoint" />
          </mxGeometry>
        </mxCell>
        <mxCell id="PevNx_j6ePKCeGL_cuYu-96" value="name" style="ellipse;whiteSpace=wrap;html=1;align=center;" vertex="1" parent="1">
          <mxGeometry x="-380" y="182.5" width="100" height="40" as="geometry" />
        </mxCell>
        <mxCell id="PevNx_j6ePKCeGL_cuYu-97" value="address" style="ellipse;whiteSpace=wrap;html=1;align=center;" vertex="1" parent="1">
          <mxGeometry x="-575" y="-255" width="100" height="40" as="geometry" />
        </mxCell>
        <mxCell id="PevNx_j6ePKCeGL_cuYu-98" value="" style="endArrow=none;html=1;rounded=0;entryX=1;entryY=1;entryDx=0;entryDy=0;" edge="1" target="PevNx_j6ePKCeGL_cuYu-97" parent="1">
          <mxGeometry relative="1" as="geometry">
            <mxPoint x="-410" y="-90" as="sourcePoint" />
            <mxPoint x="-600" y="-250" as="targetPoint" />
          </mxGeometry>
        </mxCell>
        <mxCell id="PevNx_j6ePKCeGL_cuYu-99" value="email" style="ellipse;whiteSpace=wrap;html=1;align=center;" vertex="1" parent="1">
          <mxGeometry x="-600" y="172.5" width="100" height="40" as="geometry" />
        </mxCell>
        <mxCell id="PevNx_j6ePKCeGL_cuYu-100" value="max_rent" style="ellipse;whiteSpace=wrap;html=1;align=center;" vertex="1" parent="1">
          <mxGeometry x="-650" y="122.5" width="100" height="40" as="geometry" />
        </mxCell>
        <mxCell id="PevNx_j6ePKCeGL_cuYu-101" value="prop_pref" style="ellipse;whiteSpace=wrap;html=1;align=center;" vertex="1" parent="1">
          <mxGeometry x="-655" y="35" width="100" height="40" as="geometry" />
        </mxCell>
        <mxCell id="PevNx_j6ePKCeGL_cuYu-102" value="" style="endArrow=none;html=1;rounded=0;entryX=0.25;entryY=1;entryDx=0;entryDy=0;" edge="1" target="PevNx_j6ePKCeGL_cuYu-92" parent="1">
          <mxGeometry relative="1" as="geometry">
            <mxPoint x="-510" y="182.5" as="sourcePoint" />
            <mxPoint x="-425" y="-147.5" as="targetPoint" />
          </mxGeometry>
        </mxCell>
        <mxCell id="PevNx_j6ePKCeGL_cuYu-103" value="" style="endArrow=none;html=1;rounded=0;exitX=1;exitY=0;exitDx=0;exitDy=0;" edge="1" source="PevNx_j6ePKCeGL_cuYu-100" parent="1">
          <mxGeometry relative="1" as="geometry">
            <mxPoint x="-575" y="-177.5" as="sourcePoint" />
            <mxPoint x="-430" y="-47.5" as="targetPoint" />
          </mxGeometry>
        </mxCell>
        <mxCell id="PevNx_j6ePKCeGL_cuYu-104" value="" style="endArrow=none;html=1;rounded=0;entryX=0;entryY=1;entryDx=0;entryDy=0;" edge="1" source="PevNx_j6ePKCeGL_cuYu-101" target="PevNx_j6ePKCeGL_cuYu-92" parent="1">
          <mxGeometry relative="1" as="geometry">
            <mxPoint x="-605" y="-47.5" as="sourcePoint" />
            <mxPoint x="-445" y="-47.5" as="targetPoint" />
          </mxGeometry>
        </mxCell>
        <mxCell id="PevNx_j6ePKCeGL_cuYu-107" value="first_name" style="ellipse;whiteSpace=wrap;html=1;align=center;" vertex="1" parent="1">
          <mxGeometry x="-420" y="272.5" width="100" height="40" as="geometry" />
        </mxCell>
        <mxCell id="PevNx_j6ePKCeGL_cuYu-108" value="last_name" style="ellipse;whiteSpace=wrap;html=1;align=center;" vertex="1" parent="1">
          <mxGeometry x="-300" y="272.5" width="100" height="40" as="geometry" />
        </mxCell>
        <mxCell id="PevNx_j6ePKCeGL_cuYu-109" value="" style="endArrow=none;html=1;rounded=0;exitX=1;exitY=1;exitDx=0;exitDy=0;" edge="1" source="PevNx_j6ePKCeGL_cuYu-110" parent="1">
          <mxGeometry relative="1" as="geometry">
            <mxPoint x="-605" y="-57.5" as="sourcePoint" />
            <mxPoint x="-445" y="-67.5" as="targetPoint" />
          </mxGeometry>
        </mxCell>
        <mxCell id="PevNx_j6ePKCeGL_cuYu-110" value="phone_num" style="ellipse;whiteSpace=wrap;html=1;align=center;" vertex="1" parent="1">
          <mxGeometry x="-670" y="-57.5" width="100" height="40" as="geometry" />
        </mxCell>
        <mxCell id="PevNx_j6ePKCeGL_cuYu-111" value="" style="endArrow=none;html=1;rounded=0;" edge="1" parent="1">
          <mxGeometry relative="1" as="geometry">
            <mxPoint x="-740" y="-80" as="sourcePoint" />
            <mxPoint x="-660" y="-50" as="targetPoint" />
          </mxGeometry>
        </mxCell>
        <mxCell id="PevNx_j6ePKCeGL_cuYu-112" value="" style="endArrow=none;html=1;rounded=0;entryX=0.1;entryY=0.25;entryDx=0;entryDy=0;entryPerimeter=0;" edge="1" parent="1">
          <mxGeometry relative="1" as="geometry">
            <mxPoint x="-760" y="-35" as="sourcePoint" />
            <mxPoint x="-670" y="-35" as="targetPoint" />
          </mxGeometry>
        </mxCell>
        <mxCell id="PevNx_j6ePKCeGL_cuYu-113" value="" style="endArrow=none;html=1;rounded=0;" edge="1" parent="1">
          <mxGeometry relative="1" as="geometry">
            <mxPoint x="-730" y="10" as="sourcePoint" />
            <mxPoint x="-650" y="-24.5" as="targetPoint" />
          </mxGeometry>
        </mxCell>
        <mxCell id="PevNx_j6ePKCeGL_cuYu-114" value="work_num" style="ellipse;whiteSpace=wrap;html=1;align=center;" vertex="1" parent="1">
          <mxGeometry x="-820" y="-110" width="100" height="40" as="geometry" />
        </mxCell>
        <mxCell id="PevNx_j6ePKCeGL_cuYu-115" value="cell_num" style="ellipse;whiteSpace=wrap;html=1;align=center;" vertex="1" parent="1">
          <mxGeometry x="-850" y="-50" width="100" height="40" as="geometry" />
        </mxCell>
        <mxCell id="PevNx_j6ePKCeGL_cuYu-116" value="home_num" style="ellipse;whiteSpace=wrap;html=1;align=center;" vertex="1" parent="1">
          <mxGeometry x="-820" y="-5" width="100" height="40" as="geometry" />
        </mxCell>
        <mxCell id="PevNx_j6ePKCeGL_cuYu-117" value="" style="endArrow=none;html=1;rounded=0;exitX=0.5;exitY=0;exitDx=0;exitDy=0;entryX=0.5;entryY=1;entryDx=0;entryDy=0;" edge="1" source="PevNx_j6ePKCeGL_cuYu-97" parent="1" target="PevNx_j6ePKCeGL_cuYu-122">
          <mxGeometry relative="1" as="geometry">
            <mxPoint x="-565" y="-285" as="sourcePoint" />
            <mxPoint x="-555" y="-330" as="targetPoint" />
          </mxGeometry>
        </mxCell>
        <mxCell id="PevNx_j6ePKCeGL_cuYu-118" value="" style="endArrow=none;html=1;rounded=0;exitX=0;exitY=0;exitDx=0;exitDy=0;entryX=1;entryY=1;entryDx=0;entryDy=0;" edge="1" source="PevNx_j6ePKCeGL_cuYu-97" parent="1" target="PevNx_j6ePKCeGL_cuYu-123">
          <mxGeometry relative="1" as="geometry">
            <mxPoint x="-485" y="-255" as="sourcePoint" />
            <mxPoint x="-455" y="-305" as="targetPoint" />
          </mxGeometry>
        </mxCell>
        <mxCell id="PevNx_j6ePKCeGL_cuYu-119" value="" style="endArrow=none;html=1;rounded=0;entryX=1;entryY=0.5;entryDx=0;entryDy=0;" edge="1" parent="1" target="PevNx_j6ePKCeGL_cuYu-124">
          <mxGeometry relative="1" as="geometry">
            <mxPoint x="-575" y="-235" as="sourcePoint" />
            <mxPoint x="-400" y="-235.5" as="targetPoint" />
          </mxGeometry>
        </mxCell>
        <mxCell id="PevNx_j6ePKCeGL_cuYu-120" value="" style="endArrow=none;html=1;rounded=0;exitX=0;exitY=1;exitDx=0;exitDy=0;" edge="1" source="PevNx_j6ePKCeGL_cuYu-97" target="PevNx_j6ePKCeGL_cuYu-125" parent="1">
          <mxGeometry relative="1" as="geometry">
            <mxPoint x="-500" y="-225" as="sourcePoint" />
            <mxPoint x="-445" y="-185" as="targetPoint" />
          </mxGeometry>
        </mxCell>
        <mxCell id="PevNx_j6ePKCeGL_cuYu-121" value="" style="endArrow=none;html=1;rounded=0;exitX=0.5;exitY=0;exitDx=0;exitDy=0;" edge="1" parent="1" source="PevNx_j6ePKCeGL_cuYu-126">
          <mxGeometry relative="1" as="geometry">
            <mxPoint x="-495" y="-145" as="sourcePoint" />
            <mxPoint x="-525" y="-215" as="targetPoint" />
          </mxGeometry>
        </mxCell>
        <mxCell id="PevNx_j6ePKCeGL_cuYu-122" value="street" style="ellipse;whiteSpace=wrap;html=1;align=center;" vertex="1" parent="1">
          <mxGeometry x="-545" y="-360" width="100" height="40" as="geometry" />
        </mxCell>
        <mxCell id="PevNx_j6ePKCeGL_cuYu-123" value="city" style="ellipse;whiteSpace=wrap;html=1;align=center;" vertex="1" parent="1">
          <mxGeometry x="-675" y="-330" width="100" height="40" as="geometry" />
        </mxCell>
        <mxCell id="PevNx_j6ePKCeGL_cuYu-124" value="state" style="ellipse;whiteSpace=wrap;html=1;align=center;" vertex="1" parent="1">
          <mxGeometry x="-745" y="-250" width="100" height="40" as="geometry" />
        </mxCell>
        <mxCell id="PevNx_j6ePKCeGL_cuYu-125" value="zipcode" style="ellipse;whiteSpace=wrap;html=1;align=center;" vertex="1" parent="1">
          <mxGeometry x="-685" y="-170" width="100" height="40" as="geometry" />
        </mxCell>
        <mxCell id="PevNx_j6ePKCeGL_cuYu-126" value="unit_num" style="ellipse;whiteSpace=wrap;html=1;align=center;" vertex="1" parent="1">
          <mxGeometry x="-585" y="-130" width="100" height="40" as="geometry" />
        </mxCell>
        <mxCell id="PevNx_j6ePKCeGL_cuYu-129" value="" style="endArrow=none;html=1;rounded=0;entryX=0.3;entryY=1;entryDx=0;entryDy=0;entryPerimeter=0;exitX=0.5;exitY=0;exitDx=0;exitDy=0;" edge="1" parent="1" source="PevNx_j6ePKCeGL_cuYu-107" target="PevNx_j6ePKCeGL_cuYu-96">
          <mxGeometry relative="1" as="geometry">
            <mxPoint x="-610" y="282.5" as="sourcePoint" />
            <mxPoint x="-450" y="282.5" as="targetPoint" />
          </mxGeometry>
        </mxCell>
        <mxCell id="PevNx_j6ePKCeGL_cuYu-130" value="" style="endArrow=none;html=1;rounded=0;entryX=0.5;entryY=0;entryDx=0;entryDy=0;exitX=0.68;exitY=1;exitDx=0;exitDy=0;exitPerimeter=0;" edge="1" parent="1" source="PevNx_j6ePKCeGL_cuYu-96" target="PevNx_j6ePKCeGL_cuYu-108">
          <mxGeometry relative="1" as="geometry">
            <mxPoint x="-310" y="232.5" as="sourcePoint" />
            <mxPoint x="-150" y="232.5" as="targetPoint" />
          </mxGeometry>
        </mxCell>
        <mxCell id="PevNx_j6ePKCeGL_cuYu-131" value="Rental_property" style="whiteSpace=wrap;html=1;align=center;" vertex="1" parent="1">
          <mxGeometry x="1170" y="27.5" width="100" height="40" as="geometry" />
        </mxCell>
        <mxCell id="PevNx_j6ePKCeGL_cuYu-132" value="" style="endArrow=none;html=1;rounded=0;exitX=0.5;exitY=1;exitDx=0;exitDy=0;" edge="1" source="PevNx_j6ePKCeGL_cuYu-131" target="PevNx_j6ePKCeGL_cuYu-133" parent="1">
          <mxGeometry relative="1" as="geometry">
            <mxPoint x="1224" y="87.5" as="sourcePoint" />
            <mxPoint x="1224" y="-52.5" as="targetPoint" />
            <Array as="points" />
          </mxGeometry>
        </mxCell>
        <mxCell id="PevNx_j6ePKCeGL_cuYu-133" value="property_num" style="ellipse;whiteSpace=wrap;html=1;align=center;fontStyle=4;" vertex="1" parent="1">
          <mxGeometry x="1250" y="247.5" width="100" height="40" as="geometry" />
        </mxCell>
        <mxCell id="PevNx_j6ePKCeGL_cuYu-134" value="" style="endArrow=none;html=1;rounded=0;exitX=0.75;exitY=1;exitDx=0;exitDy=0;entryX=0.42;entryY=1.05;entryDx=0;entryDy=0;entryPerimeter=0;" edge="1" source="PevNx_j6ePKCeGL_cuYu-131" target="PevNx_j6ePKCeGL_cuYu-135" parent="1">
          <mxGeometry relative="1" as="geometry">
            <mxPoint x="1325" y="-22.5" as="sourcePoint" />
            <mxPoint x="1285" y="-142.5" as="targetPoint" />
          </mxGeometry>
        </mxCell>
        <mxCell id="PevNx_j6ePKCeGL_cuYu-135" value="name" style="ellipse;whiteSpace=wrap;html=1;align=center;" vertex="1" parent="1">
          <mxGeometry x="1370" y="215" width="100" height="40" as="geometry" />
        </mxCell>
        <mxCell id="PevNx_j6ePKCeGL_cuYu-136" value="address" style="ellipse;whiteSpace=wrap;html=1;align=center;" vertex="1" parent="1">
          <mxGeometry x="1450" y="120" width="100" height="40" as="geometry" />
        </mxCell>
        <mxCell id="PevNx_j6ePKCeGL_cuYu-137" value="" style="endArrow=none;html=1;rounded=0;exitX=1;exitY=1;exitDx=0;exitDy=0;entryX=0;entryY=0.5;entryDx=0;entryDy=0;" edge="1" source="PevNx_j6ePKCeGL_cuYu-131" target="PevNx_j6ePKCeGL_cuYu-136" parent="1">
          <mxGeometry relative="1" as="geometry">
            <mxPoint x="1215" y="-62.5" as="sourcePoint" />
            <mxPoint x="1375" y="-62.5" as="targetPoint" />
          </mxGeometry>
        </mxCell>
        <mxCell id="PevNx_j6ePKCeGL_cuYu-138" value="ad_active" style="ellipse;whiteSpace=wrap;html=1;align=center;" vertex="1" parent="1">
          <mxGeometry x="1180" y="312.5" width="100" height="40" as="geometry" />
        </mxCell>
        <mxCell id="PevNx_j6ePKCeGL_cuYu-139" value="asking_rent" style="ellipse;whiteSpace=wrap;html=1;align=center;" vertex="1" parent="1">
          <mxGeometry x="1080" y="287.5" width="100" height="40" as="geometry" />
        </mxCell>
        <mxCell id="PevNx_j6ePKCeGL_cuYu-140" value="area_sqft" style="ellipse;whiteSpace=wrap;html=1;align=center;" vertex="1" parent="1">
          <mxGeometry x="1060" y="215" width="100" height="40" as="geometry" />
        </mxCell>
        <mxCell id="PevNx_j6ePKCeGL_cuYu-141" value="" style="endArrow=none;html=1;rounded=0;entryX=0.25;entryY=1;entryDx=0;entryDy=0;exitX=0.5;exitY=0;exitDx=0;exitDy=0;" edge="1" target="PevNx_j6ePKCeGL_cuYu-131" parent="1" source="PevNx_j6ePKCeGL_cuYu-138">
          <mxGeometry relative="1" as="geometry">
            <mxPoint x="1110" y="297.5" as="sourcePoint" />
            <mxPoint x="1195" y="-32.5" as="targetPoint" />
          </mxGeometry>
        </mxCell>
        <mxCell id="PevNx_j6ePKCeGL_cuYu-142" value="" style="endArrow=none;html=1;rounded=0;exitX=1;exitY=0;exitDx=0;exitDy=0;" edge="1" source="PevNx_j6ePKCeGL_cuYu-139" parent="1">
          <mxGeometry relative="1" as="geometry">
            <mxPoint x="1045" y="-62.5" as="sourcePoint" />
            <mxPoint x="1190" y="67.5" as="targetPoint" />
          </mxGeometry>
        </mxCell>
        <mxCell id="PevNx_j6ePKCeGL_cuYu-143" value="" style="endArrow=none;html=1;rounded=0;entryX=0;entryY=1;entryDx=0;entryDy=0;" edge="1" source="PevNx_j6ePKCeGL_cuYu-140" target="PevNx_j6ePKCeGL_cuYu-131" parent="1">
          <mxGeometry relative="1" as="geometry">
            <mxPoint x="1015" y="67.5" as="sourcePoint" />
            <mxPoint x="1175" y="67.5" as="targetPoint" />
          </mxGeometry>
        </mxCell>
        <mxCell id="PevNx_j6ePKCeGL_cuYu-144" value="first_name" style="ellipse;whiteSpace=wrap;html=1;align=center;" vertex="1" parent="1">
          <mxGeometry x="1330" y="305" width="100" height="40" as="geometry" />
        </mxCell>
        <mxCell id="PevNx_j6ePKCeGL_cuYu-145" value="last_name" style="ellipse;whiteSpace=wrap;html=1;align=center;" vertex="1" parent="1">
          <mxGeometry x="1450" y="305" width="100" height="40" as="geometry" />
        </mxCell>
        <mxCell id="PevNx_j6ePKCeGL_cuYu-146" value="" style="endArrow=none;html=1;rounded=0;exitX=0;exitY=1;exitDx=0;exitDy=0;entryX=1;entryY=0.5;entryDx=0;entryDy=0;" edge="1" source="PevNx_j6ePKCeGL_cuYu-147" parent="1" target="PevNx_j6ePKCeGL_cuYu-131">
          <mxGeometry relative="1" as="geometry">
            <mxPoint x="1015" y="57.5" as="sourcePoint" />
            <mxPoint x="1175" y="47.5" as="targetPoint" />
          </mxGeometry>
        </mxCell>
        <mxCell id="PevNx_j6ePKCeGL_cuYu-147" value="prop_type" style="ellipse;whiteSpace=wrap;html=1;align=center;" vertex="1" parent="1">
          <mxGeometry x="1450" y="-62.5" width="100" height="40" as="geometry" />
        </mxCell>
        <mxCell id="PevNx_j6ePKCeGL_cuYu-148" value="" style="endArrow=none;html=1;rounded=0;entryX=0;entryY=1;entryDx=0;entryDy=0;" edge="1" parent="1" source="PevNx_j6ePKCeGL_cuYu-147" target="PevNx_j6ePKCeGL_cuYu-151">
          <mxGeometry relative="1" as="geometry">
            <mxPoint x="1580" y="-72.5" as="sourcePoint" />
            <mxPoint x="1660" y="-42.5" as="targetPoint" />
          </mxGeometry>
        </mxCell>
        <mxCell id="PevNx_j6ePKCeGL_cuYu-149" value="" style="endArrow=none;html=1;rounded=0;entryX=1;entryY=0.5;entryDx=0;entryDy=0;exitX=0;exitY=0.5;exitDx=0;exitDy=0;" edge="1" parent="1" source="PevNx_j6ePKCeGL_cuYu-152" target="PevNx_j6ePKCeGL_cuYu-147">
          <mxGeometry relative="1" as="geometry">
            <mxPoint x="1720" y="12.5" as="sourcePoint" />
            <mxPoint x="1810" y="12.5" as="targetPoint" />
          </mxGeometry>
        </mxCell>
        <mxCell id="PevNx_j6ePKCeGL_cuYu-150" value="" style="endArrow=none;html=1;rounded=0;exitX=0;exitY=0.5;exitDx=0;exitDy=0;entryX=1;entryY=1;entryDx=0;entryDy=0;" edge="1" parent="1" source="PevNx_j6ePKCeGL_cuYu-153" target="PevNx_j6ePKCeGL_cuYu-147">
          <mxGeometry relative="1" as="geometry">
            <mxPoint x="1750" y="57.5" as="sourcePoint" />
            <mxPoint x="1550" y="37.5" as="targetPoint" />
          </mxGeometry>
        </mxCell>
        <mxCell id="PevNx_j6ePKCeGL_cuYu-151" value="residential" style="ellipse;whiteSpace=wrap;html=1;align=center;" vertex="1" parent="1">
          <mxGeometry x="1570" y="-140" width="100" height="40" as="geometry" />
        </mxCell>
        <mxCell id="PevNx_j6ePKCeGL_cuYu-152" value="industrial" style="ellipse;whiteSpace=wrap;html=1;align=center;" vertex="1" parent="1">
          <mxGeometry x="1670" y="-85" width="100" height="40" as="geometry" />
        </mxCell>
        <mxCell id="PevNx_j6ePKCeGL_cuYu-154" value="" style="endArrow=none;html=1;rounded=0;exitX=0.5;exitY=0;exitDx=0;exitDy=0;" edge="1" source="PevNx_j6ePKCeGL_cuYu-136" parent="1">
          <mxGeometry relative="1" as="geometry">
            <mxPoint x="1460" y="90" as="sourcePoint" />
            <mxPoint x="1520" y="60" as="targetPoint" />
          </mxGeometry>
        </mxCell>
        <mxCell id="PevNx_j6ePKCeGL_cuYu-155" value="" style="endArrow=none;html=1;rounded=0;exitX=1;exitY=0;exitDx=0;exitDy=0;" edge="1" source="PevNx_j6ePKCeGL_cuYu-136" parent="1">
          <mxGeometry relative="1" as="geometry">
            <mxPoint x="1540" y="120" as="sourcePoint" />
            <mxPoint x="1570" y="70" as="targetPoint" />
          </mxGeometry>
        </mxCell>
        <mxCell id="PevNx_j6ePKCeGL_cuYu-156" value="" style="endArrow=none;html=1;rounded=0;exitX=1;exitY=0.5;exitDx=0;exitDy=0;" edge="1" source="PevNx_j6ePKCeGL_cuYu-136" parent="1">
          <mxGeometry relative="1" as="geometry">
            <mxPoint x="1575" y="139.5" as="sourcePoint" />
            <mxPoint x="1625" y="139.5" as="targetPoint" />
          </mxGeometry>
        </mxCell>
        <mxCell id="PevNx_j6ePKCeGL_cuYu-157" value="" style="endArrow=none;html=1;rounded=0;exitX=1;exitY=1;exitDx=0;exitDy=0;" edge="1" source="PevNx_j6ePKCeGL_cuYu-136" target="PevNx_j6ePKCeGL_cuYu-162" parent="1">
          <mxGeometry relative="1" as="geometry">
            <mxPoint x="1525" y="150" as="sourcePoint" />
            <mxPoint x="1580" y="190" as="targetPoint" />
          </mxGeometry>
        </mxCell>
        <mxCell id="PevNx_j6ePKCeGL_cuYu-158" value="" style="endArrow=none;html=1;rounded=0;" edge="1" parent="1">
          <mxGeometry relative="1" as="geometry">
            <mxPoint x="1530" y="230" as="sourcePoint" />
            <mxPoint x="1500" y="160" as="targetPoint" />
          </mxGeometry>
        </mxCell>
        <mxCell id="PevNx_j6ePKCeGL_cuYu-159" value="street" style="ellipse;whiteSpace=wrap;html=1;align=center;" vertex="1" parent="1">
          <mxGeometry x="1460" y="20" width="100" height="40" as="geometry" />
        </mxCell>
        <mxCell id="PevNx_j6ePKCeGL_cuYu-160" value="city" style="ellipse;whiteSpace=wrap;html=1;align=center;" vertex="1" parent="1">
          <mxGeometry x="1560" y="40" width="100" height="40" as="geometry" />
        </mxCell>
        <mxCell id="PevNx_j6ePKCeGL_cuYu-161" value="state" style="ellipse;whiteSpace=wrap;html=1;align=center;" vertex="1" parent="1">
          <mxGeometry x="1620" y="120" width="100" height="40" as="geometry" />
        </mxCell>
        <mxCell id="PevNx_j6ePKCeGL_cuYu-162" value="zipcode" style="ellipse;whiteSpace=wrap;html=1;align=center;" vertex="1" parent="1">
          <mxGeometry x="1560" y="180" width="100" height="40" as="geometry" />
        </mxCell>
        <mxCell id="PevNx_j6ePKCeGL_cuYu-163" value="unit_num" style="ellipse;whiteSpace=wrap;html=1;align=center;" vertex="1" parent="1">
          <mxGeometry x="1480" y="220" width="100" height="40" as="geometry" />
        </mxCell>
        <mxCell id="PevNx_j6ePKCeGL_cuYu-164" value="" style="endArrow=none;html=1;rounded=0;entryX=0.3;entryY=1;entryDx=0;entryDy=0;entryPerimeter=0;exitX=0.5;exitY=0;exitDx=0;exitDy=0;" edge="1" source="PevNx_j6ePKCeGL_cuYu-144" target="PevNx_j6ePKCeGL_cuYu-135" parent="1">
          <mxGeometry relative="1" as="geometry">
            <mxPoint x="1140" y="315" as="sourcePoint" />
            <mxPoint x="1300" y="315" as="targetPoint" />
          </mxGeometry>
        </mxCell>
        <mxCell id="PevNx_j6ePKCeGL_cuYu-165" value="" style="endArrow=none;html=1;rounded=0;entryX=0.5;entryY=0;entryDx=0;entryDy=0;exitX=0.68;exitY=1;exitDx=0;exitDy=0;exitPerimeter=0;" edge="1" source="PevNx_j6ePKCeGL_cuYu-135" target="PevNx_j6ePKCeGL_cuYu-145" parent="1">
          <mxGeometry relative="1" as="geometry">
            <mxPoint x="1440" y="265" as="sourcePoint" />
            <mxPoint x="1600" y="265" as="targetPoint" />
          </mxGeometry>
        </mxCell>
        <mxCell id="PevNx_j6ePKCeGL_cuYu-166" value="Owned_by" style="shape=rhombus;perimeter=rhombusPerimeter;whiteSpace=wrap;html=1;align=center;" vertex="1" parent="1">
          <mxGeometry x="1260" y="-235" width="120" height="60" as="geometry" />
        </mxCell>
        <mxCell id="PevNx_j6ePKCeGL_cuYu-167" value="" style="endArrow=none;html=1;rounded=0;exitX=0.5;exitY=0;exitDx=0;exitDy=0;entryX=0.5;entryY=1;entryDx=0;entryDy=0;" edge="1" parent="1" source="PevNx_j6ePKCeGL_cuYu-166" target="PevNx_j6ePKCeGL_cuYu-47">
          <mxGeometry relative="1" as="geometry">
            <mxPoint x="1095" y="-245" as="sourcePoint" />
            <mxPoint x="1255" y="-245" as="targetPoint" />
          </mxGeometry>
        </mxCell>
        <mxCell id="PevNx_j6ePKCeGL_cuYu-168" value="" style="endArrow=none;html=1;rounded=0;entryX=0.5;entryY=0;entryDx=0;entryDy=0;exitX=0.5;exitY=1;exitDx=0;exitDy=0;" edge="1" parent="1" source="PevNx_j6ePKCeGL_cuYu-166" target="PevNx_j6ePKCeGL_cuYu-131">
          <mxGeometry relative="1" as="geometry">
            <mxPoint x="1270" y="-192.5" as="sourcePoint" />
            <mxPoint x="1450" y="-132.5" as="targetPoint" />
          </mxGeometry>
        </mxCell>
        <mxCell id="PevNx_j6ePKCeGL_cuYu-169" value="" style="triangle;whiteSpace=wrap;html=1;rotation=-90;" vertex="1" parent="1">
          <mxGeometry x="95" y="-420" width="85" height="110" as="geometry" />
        </mxCell>
        <mxCell id="PevNx_j6ePKCeGL_cuYu-170" value="ISA" style="text;html=1;strokeColor=none;fillColor=none;align=center;verticalAlign=middle;whiteSpace=wrap;rounded=0;" vertex="1" parent="1">
          <mxGeometry x="117.5" y="-360" width="40" height="20" as="geometry" />
        </mxCell>
        <mxCell id="PevNx_j6ePKCeGL_cuYu-171" value="" style="endArrow=none;html=1;rounded=0;exitX=1;exitY=0.5;exitDx=0;exitDy=0;" edge="1" parent="1" source="PevNx_j6ePKCeGL_cuYu-1" target="PevNx_j6ePKCeGL_cuYu-169">
          <mxGeometry relative="1" as="geometry">
            <mxPoint x="-10" y="-375" as="sourcePoint" />
            <mxPoint x="150" y="-375" as="targetPoint" />
          </mxGeometry>
        </mxCell>
        <mxCell id="PevNx_j6ePKCeGL_cuYu-174" value="Associate" style="whiteSpace=wrap;html=1;align=center;" vertex="1" parent="1">
          <mxGeometry x="87.5" y="-215" width="100" height="40" as="geometry" />
        </mxCell>
        <mxCell id="PevNx_j6ePKCeGL_cuYu-175" value="Partner" style="whiteSpace=wrap;html=1;align=center;" vertex="1" parent="1">
          <mxGeometry x="600" y="-375" width="100" height="40" as="geometry" />
        </mxCell>
        <mxCell id="PevNx_j6ePKCeGL_cuYu-176" value="" style="endArrow=none;html=1;rounded=0;entryX=0;entryY=0.5;entryDx=0;entryDy=0;exitX=0.5;exitY=1;exitDx=0;exitDy=0;" edge="1" parent="1" source="PevNx_j6ePKCeGL_cuYu-169" target="PevNx_j6ePKCeGL_cuYu-175">
          <mxGeometry relative="1" as="geometry">
            <mxPoint x="180" y="-235" as="sourcePoint" />
            <mxPoint x="450" y="-335" as="targetPoint" />
          </mxGeometry>
        </mxCell>
        <mxCell id="PevNx_j6ePKCeGL_cuYu-178" value="" style="endArrow=none;html=1;rounded=0;entryX=0.5;entryY=0;entryDx=0;entryDy=0;exitX=0;exitY=0.5;exitDx=0;exitDy=0;" edge="1" parent="1" source="PevNx_j6ePKCeGL_cuYu-169" target="PevNx_j6ePKCeGL_cuYu-174">
          <mxGeometry relative="1" as="geometry">
            <mxPoint x="153" y="-185" as="sourcePoint" />
            <mxPoint x="310" y="-185" as="targetPoint" />
          </mxGeometry>
        </mxCell>
        <mxCell id="PevNx_j6ePKCeGL_cuYu-180" value="associated_with" style="shape=rhombus;perimeter=rhombusPerimeter;whiteSpace=wrap;html=1;align=center;" vertex="1" parent="1">
          <mxGeometry x="740" y="-85" width="120" height="60" as="geometry" />
        </mxCell>
        <mxCell id="PevNx_j6ePKCeGL_cuYu-181" value="" style="endArrow=none;html=1;rounded=0;entryX=0;entryY=0.5;entryDx=0;entryDy=0;" edge="1" parent="1" source="PevNx_j6ePKCeGL_cuYu-174" target="PevNx_j6ePKCeGL_cuYu-180">
          <mxGeometry relative="1" as="geometry">
            <mxPoint x="352.5" y="-125" as="sourcePoint" />
            <mxPoint x="512.5" y="-125" as="targetPoint" />
          </mxGeometry>
        </mxCell>
        <mxCell id="PevNx_j6ePKCeGL_cuYu-182" value="" style="endArrow=none;html=1;rounded=0;entryX=0;entryY=0;entryDx=0;entryDy=0;exitX=1;exitY=0.5;exitDx=0;exitDy=0;" edge="1" parent="1" source="PevNx_j6ePKCeGL_cuYu-180" target="PevNx_j6ePKCeGL_cuYu-131">
          <mxGeometry relative="1" as="geometry">
            <mxPoint x="990" y="-47.5" as="sourcePoint" />
            <mxPoint x="1020" y="-52.5" as="targetPoint" />
          </mxGeometry>
        </mxCell>
        <mxCell id="PevNx_j6ePKCeGL_cuYu-153" value="commercial" style="ellipse;whiteSpace=wrap;html=1;align=center;" vertex="1" parent="1">
          <mxGeometry x="1680" y="-17.5" width="100" height="40" as="geometry" />
        </mxCell>
        <mxCell id="PevNx_j6ePKCeGL_cuYu-186" value="" style="endArrow=none;html=1;rounded=0;exitX=1;exitY=0.5;exitDx=0;exitDy=0;entryX=0;entryY=0.5;entryDx=0;entryDy=0;" edge="1" parent="1" source="PevNx_j6ePKCeGL_cuYu-151" target="PevNx_j6ePKCeGL_cuYu-187">
          <mxGeometry relative="1" as="geometry">
            <mxPoint x="1710" y="-111.67" as="sourcePoint" />
            <mxPoint x="1790" y="-111.67" as="targetPoint" />
          </mxGeometry>
        </mxCell>
        <mxCell id="PevNx_j6ePKCeGL_cuYu-187" value="bedbath_num" style="ellipse;whiteSpace=wrap;html=1;align=center;" vertex="1" parent="1">
          <mxGeometry x="1720" y="-150" width="100" height="40" as="geometry" />
        </mxCell>
        <mxCell id="PevNx_j6ePKCeGL_cuYu-190" value="Property_viewing" style="shape=ext;margin=3;double=1;whiteSpace=wrap;html=1;align=center;" vertex="1" parent="1">
          <mxGeometry x="70" y="455" width="140" height="40" as="geometry" />
        </mxCell>
        <mxCell id="PevNx_j6ePKCeGL_cuYu-193" value="scheduled_for" style="shape=rhombus;double=1;perimeter=rhombusPerimeter;whiteSpace=wrap;html=1;align=center;" vertex="1" parent="1">
          <mxGeometry x="190" y="367.5" width="120" height="60" as="geometry" />
        </mxCell>
        <mxCell id="PevNx_j6ePKCeGL_cuYu-194" value="" style="endArrow=none;html=1;rounded=0;exitX=0.5;exitY=1;exitDx=0;exitDy=0;entryX=0.5;entryY=0;entryDx=0;entryDy=0;" edge="1" parent="1" source="PevNx_j6ePKCeGL_cuYu-174" target="PevNx_j6ePKCeGL_cuYu-209">
          <mxGeometry relative="1" as="geometry">
            <mxPoint x="320" y="-5" as="sourcePoint" />
            <mxPoint x="258" y="-125" as="targetPoint" />
          </mxGeometry>
        </mxCell>
        <mxCell id="PevNx_j6ePKCeGL_cuYu-195" value="" style="endArrow=none;html=1;rounded=0;entryX=0.5;entryY=0;entryDx=0;entryDy=0;exitX=1;exitY=0.75;exitDx=0;exitDy=0;" edge="1" parent="1" source="PevNx_j6ePKCeGL_cuYu-92" target="PevNx_j6ePKCeGL_cuYu-208">
          <mxGeometry relative="1" as="geometry">
            <mxPoint x="-105" y="-185" as="sourcePoint" />
            <mxPoint x="120" y="15" as="targetPoint" />
          </mxGeometry>
        </mxCell>
        <mxCell id="PevNx_j6ePKCeGL_cuYu-196" value="" style="endArrow=none;html=1;rounded=0;entryX=0;entryY=0.25;entryDx=0;entryDy=0;exitX=1;exitY=0;exitDx=0;exitDy=0;" edge="1" parent="1" source="PevNx_j6ePKCeGL_cuYu-193" target="PevNx_j6ePKCeGL_cuYu-131">
          <mxGeometry relative="1" as="geometry">
            <mxPoint x="470" y="145" as="sourcePoint" />
            <mxPoint x="820" y="95" as="targetPoint" />
          </mxGeometry>
        </mxCell>
        <mxCell id="PevNx_j6ePKCeGL_cuYu-198" value="" style="endArrow=none;html=1;rounded=0;exitX=0;exitY=1;exitDx=0;exitDy=0;entryX=0.5;entryY=0;entryDx=0;entryDy=0;" edge="1" parent="1" source="PevNx_j6ePKCeGL_cuYu-193" target="PevNx_j6ePKCeGL_cuYu-190">
          <mxGeometry relative="1" as="geometry">
            <mxPoint x="420" y="435" as="sourcePoint" />
            <mxPoint x="580" y="435" as="targetPoint" />
          </mxGeometry>
        </mxCell>
        <mxCell id="PevNx_j6ePKCeGL_cuYu-199" value="&lt;span style=&quot;border-bottom: 1px dotted&quot;&gt;prop_view_num&lt;/span&gt;" style="ellipse;whiteSpace=wrap;html=1;align=center;" vertex="1" parent="1">
          <mxGeometry x="100" y="605" width="100" height="40" as="geometry" />
        </mxCell>
        <mxCell id="PevNx_j6ePKCeGL_cuYu-200" value="" style="endArrow=none;html=1;rounded=0;entryX=0.5;entryY=0;entryDx=0;entryDy=0;exitX=0.5;exitY=1;exitDx=0;exitDy=0;" edge="1" parent="1" source="PevNx_j6ePKCeGL_cuYu-190" target="PevNx_j6ePKCeGL_cuYu-199">
          <mxGeometry relative="1" as="geometry">
            <mxPoint x="20" y="525" as="sourcePoint" />
            <mxPoint x="180" y="525" as="targetPoint" />
          </mxGeometry>
        </mxCell>
        <mxCell id="PevNx_j6ePKCeGL_cuYu-202" value="" style="endArrow=none;html=1;rounded=0;exitX=0.75;exitY=1;exitDx=0;exitDy=0;entryX=0.5;entryY=0;entryDx=0;entryDy=0;" edge="1" parent="1" source="PevNx_j6ePKCeGL_cuYu-190" target="PevNx_j6ePKCeGL_cuYu-203">
          <mxGeometry relative="1" as="geometry">
            <mxPoint x="60" y="525" as="sourcePoint" />
            <mxPoint x="150" y="615" as="targetPoint" />
          </mxGeometry>
        </mxCell>
        <mxCell id="PevNx_j6ePKCeGL_cuYu-203" value="date_time" style="ellipse;whiteSpace=wrap;html=1;align=center;" vertex="1" parent="1">
          <mxGeometry x="217.5" y="535" width="100" height="40" as="geometry" />
        </mxCell>
        <mxCell id="PevNx_j6ePKCeGL_cuYu-204" value="view_again" style="ellipse;whiteSpace=wrap;html=1;align=center;dashed=1;" vertex="1" parent="1">
          <mxGeometry x="230" y="605" width="100" height="40" as="geometry" />
        </mxCell>
        <mxCell id="PevNx_j6ePKCeGL_cuYu-208" value="scheduled_for" style="shape=rhombus;double=1;perimeter=rhombusPerimeter;whiteSpace=wrap;html=1;align=center;" vertex="1" parent="1">
          <mxGeometry x="-30" y="335" width="120" height="60" as="geometry" />
        </mxCell>
        <mxCell id="PevNx_j6ePKCeGL_cuYu-209" value="scheduled_for" style="shape=rhombus;double=1;perimeter=rhombusPerimeter;whiteSpace=wrap;html=1;align=center;" vertex="1" parent="1">
          <mxGeometry x="80" y="355" width="120" height="60" as="geometry" />
        </mxCell>
        <mxCell id="PevNx_j6ePKCeGL_cuYu-211" value="" style="endArrow=none;html=1;rounded=0;entryX=0.5;entryY=0;entryDx=0;entryDy=0;exitX=1;exitY=1;exitDx=0;exitDy=0;" edge="1" parent="1" source="PevNx_j6ePKCeGL_cuYu-208" target="PevNx_j6ePKCeGL_cuYu-190">
          <mxGeometry relative="1" as="geometry">
            <mxPoint x="50" y="285" as="sourcePoint" />
            <mxPoint x="210" y="285" as="targetPoint" />
          </mxGeometry>
        </mxCell>
        <mxCell id="PevNx_j6ePKCeGL_cuYu-212" value="" style="endArrow=none;html=1;rounded=0;entryX=0.5;entryY=0;entryDx=0;entryDy=0;exitX=0.5;exitY=1;exitDx=0;exitDy=0;" edge="1" parent="1" source="PevNx_j6ePKCeGL_cuYu-209" target="PevNx_j6ePKCeGL_cuYu-190">
          <mxGeometry relative="1" as="geometry">
            <mxPoint x="170" y="225" as="sourcePoint" />
            <mxPoint x="330" y="225" as="targetPoint" />
          </mxGeometry>
        </mxCell>
        <mxCell id="PevNx_j6ePKCeGL_cuYu-213" value="Lease" style="shape=ext;margin=3;double=1;whiteSpace=wrap;html=1;align=center;" vertex="1" parent="1">
          <mxGeometry x="640" y="525" width="100" height="40" as="geometry" />
        </mxCell>
        <mxCell id="PevNx_j6ePKCeGL_cuYu-216" value="binded_to" style="shape=rhombus;double=1;perimeter=rhombusPerimeter;whiteSpace=wrap;html=1;align=center;" vertex="1" parent="1">
          <mxGeometry x="510" y="305" width="120" height="60" as="geometry" />
        </mxCell>
        <mxCell id="PevNx_j6ePKCeGL_cuYu-217" value="" style="endArrow=none;html=1;rounded=0;exitX=1;exitY=0.5;exitDx=0;exitDy=0;entryX=0;entryY=0;entryDx=0;entryDy=0;" edge="1" parent="1" source="PevNx_j6ePKCeGL_cuYu-92" target="PevNx_j6ePKCeGL_cuYu-216">
          <mxGeometry relative="1" as="geometry">
            <mxPoint x="290" y="104" as="sourcePoint" />
            <mxPoint x="440" y="104" as="targetPoint" />
          </mxGeometry>
        </mxCell>
        <mxCell id="PevNx_j6ePKCeGL_cuYu-218" value="binded_to" style="shape=rhombus;double=1;perimeter=rhombusPerimeter;whiteSpace=wrap;html=1;align=center;" vertex="1" parent="1">
          <mxGeometry x="620" y="287.5" width="120" height="60" as="geometry" />
        </mxCell>
        <mxCell id="PevNx_j6ePKCeGL_cuYu-219" value="binded_to" style="shape=rhombus;double=1;perimeter=rhombusPerimeter;whiteSpace=wrap;html=1;align=center;" vertex="1" parent="1">
          <mxGeometry x="720" y="315" width="120" height="60" as="geometry" />
        </mxCell>
        <mxCell id="PevNx_j6ePKCeGL_cuYu-220" value="" style="endArrow=none;html=1;rounded=0;entryX=0.5;entryY=0;entryDx=0;entryDy=0;exitX=1;exitY=1;exitDx=0;exitDy=0;" edge="1" parent="1" source="PevNx_j6ePKCeGL_cuYu-216" target="PevNx_j6ePKCeGL_cuYu-213">
          <mxGeometry relative="1" as="geometry">
            <mxPoint x="540" y="265" as="sourcePoint" />
            <mxPoint x="700" y="265" as="targetPoint" />
          </mxGeometry>
        </mxCell>
        <mxCell id="PevNx_j6ePKCeGL_cuYu-221" value="" style="endArrow=none;html=1;rounded=0;entryX=0.5;entryY=0;entryDx=0;entryDy=0;exitX=0.5;exitY=1;exitDx=0;exitDy=0;" edge="1" parent="1" source="PevNx_j6ePKCeGL_cuYu-218" target="PevNx_j6ePKCeGL_cuYu-213">
          <mxGeometry relative="1" as="geometry">
            <mxPoint x="640" y="215" as="sourcePoint" />
            <mxPoint x="800" y="215" as="targetPoint" />
          </mxGeometry>
        </mxCell>
        <mxCell id="PevNx_j6ePKCeGL_cuYu-222" value="" style="endArrow=none;html=1;rounded=0;entryX=0;entryY=1;entryDx=0;entryDy=0;exitX=0.5;exitY=0;exitDx=0;exitDy=0;" edge="1" parent="1" source="PevNx_j6ePKCeGL_cuYu-213" target="PevNx_j6ePKCeGL_cuYu-219">
          <mxGeometry relative="1" as="geometry">
            <mxPoint x="630" y="325" as="sourcePoint" />
            <mxPoint x="790" y="325" as="targetPoint" />
          </mxGeometry>
        </mxCell>
        <mxCell id="PevNx_j6ePKCeGL_cuYu-223" value="" style="endArrow=none;html=1;rounded=0;entryX=0;entryY=0.5;entryDx=0;entryDy=0;exitX=1;exitY=0;exitDx=0;exitDy=0;" edge="1" parent="1" source="PevNx_j6ePKCeGL_cuYu-219" target="PevNx_j6ePKCeGL_cuYu-131">
          <mxGeometry relative="1" as="geometry">
            <mxPoint x="790" y="155" as="sourcePoint" />
            <mxPoint x="950" y="155" as="targetPoint" />
          </mxGeometry>
        </mxCell>
        <mxCell id="PevNx_j6ePKCeGL_cuYu-225" value="" style="endArrow=none;html=1;rounded=0;exitX=0.5;exitY=1;exitDx=0;exitDy=0;entryX=0.5;entryY=0;entryDx=0;entryDy=0;" edge="1" parent="1" source="PevNx_j6ePKCeGL_cuYu-175" target="PevNx_j6ePKCeGL_cuYu-218">
          <mxGeometry relative="1" as="geometry">
            <mxPoint x="610" y="-15" as="sourcePoint" />
            <mxPoint x="770" y="-15" as="targetPoint" />
          </mxGeometry>
        </mxCell>
        <mxCell id="PevNx_j6ePKCeGL_cuYu-229" value="&lt;span style=&quot;border-bottom: 1px dotted&quot;&gt;lease_num&lt;/span&gt;" style="ellipse;whiteSpace=wrap;html=1;align=center;" vertex="1" parent="1">
          <mxGeometry x="640" y="725" width="100" height="40" as="geometry" />
        </mxCell>
        <mxCell id="PevNx_j6ePKCeGL_cuYu-230" value="" style="endArrow=none;html=1;rounded=0;entryX=0.5;entryY=0;entryDx=0;entryDy=0;" edge="1" parent="1" target="PevNx_j6ePKCeGL_cuYu-229">
          <mxGeometry relative="1" as="geometry">
            <mxPoint x="690" y="565" as="sourcePoint" />
            <mxPoint x="850" y="535" as="targetPoint" />
          </mxGeometry>
        </mxCell>
        <mxCell id="PevNx_j6ePKCeGL_cuYu-231" value="client" style="ellipse;whiteSpace=wrap;html=1;align=center;" vertex="1" parent="1">
          <mxGeometry x="-10" y="615" width="100" height="40" as="geometry" />
        </mxCell>
        <mxCell id="PevNx_j6ePKCeGL_cuYu-232" value="associate" style="ellipse;whiteSpace=wrap;html=1;align=center;" vertex="1" parent="1">
          <mxGeometry x="-110" y="585" width="100" height="40" as="geometry" />
        </mxCell>
        <mxCell id="PevNx_j6ePKCeGL_cuYu-233" value="rental_property" style="ellipse;whiteSpace=wrap;html=1;align=center;" vertex="1" parent="1">
          <mxGeometry x="-150" y="527.5" width="100" height="40" as="geometry" />
        </mxCell>
        <mxCell id="PevNx_j6ePKCeGL_cuYu-234" value="" style="endArrow=none;html=1;rounded=0;entryX=0;entryY=0.5;entryDx=0;entryDy=0;exitX=0.714;exitY=-0.002;exitDx=0;exitDy=0;exitPerimeter=0;" edge="1" parent="1" source="PevNx_j6ePKCeGL_cuYu-233" target="PevNx_j6ePKCeGL_cuYu-190">
          <mxGeometry relative="1" as="geometry">
            <mxPoint x="-80" y="535" as="sourcePoint" />
            <mxPoint x="90" y="535" as="targetPoint" />
          </mxGeometry>
        </mxCell>
        <mxCell id="PevNx_j6ePKCeGL_cuYu-235" value="" style="endArrow=none;html=1;rounded=0;entryX=0;entryY=1;entryDx=0;entryDy=0;" edge="1" parent="1" target="PevNx_j6ePKCeGL_cuYu-190">
          <mxGeometry relative="1" as="geometry">
            <mxPoint x="-50" y="585" as="sourcePoint" />
            <mxPoint x="110" y="585" as="targetPoint" />
          </mxGeometry>
        </mxCell>
        <mxCell id="PevNx_j6ePKCeGL_cuYu-236" value="" style="endArrow=none;html=1;rounded=0;entryX=0.25;entryY=1;entryDx=0;entryDy=0;exitX=0.5;exitY=0;exitDx=0;exitDy=0;" edge="1" parent="1" source="PevNx_j6ePKCeGL_cuYu-231" target="PevNx_j6ePKCeGL_cuYu-190">
          <mxGeometry relative="1" as="geometry">
            <mxPoint x="30" y="615" as="sourcePoint" />
            <mxPoint x="190" y="615" as="targetPoint" />
          </mxGeometry>
        </mxCell>
        <mxCell id="PevNx_j6ePKCeGL_cuYu-237" value="rent" style="ellipse;whiteSpace=wrap;html=1;align=center;" vertex="1" parent="1">
          <mxGeometry x="700" y="665" width="100" height="40" as="geometry" />
        </mxCell>
        <mxCell id="PevNx_j6ePKCeGL_cuYu-238" value="deposit" style="ellipse;whiteSpace=wrap;html=1;align=center;" vertex="1" parent="1">
          <mxGeometry x="800" y="725" width="100" height="40" as="geometry" />
        </mxCell>
        <mxCell id="PevNx_j6ePKCeGL_cuYu-239" value="lease_date" style="ellipse;whiteSpace=wrap;html=1;align=center;" vertex="1" parent="1">
          <mxGeometry x="500" y="550" width="100" height="40" as="geometry" />
        </mxCell>
        <mxCell id="PevNx_j6ePKCeGL_cuYu-240" value="" style="endArrow=none;html=1;rounded=0;exitX=1;exitY=1;exitDx=0;exitDy=0;" edge="1" parent="1" source="PevNx_j6ePKCeGL_cuYu-213" target="PevNx_j6ePKCeGL_cuYu-238">
          <mxGeometry relative="1" as="geometry">
            <mxPoint x="740" y="545" as="sourcePoint" />
            <mxPoint x="900" y="545" as="targetPoint" />
          </mxGeometry>
        </mxCell>
        <mxCell id="PevNx_j6ePKCeGL_cuYu-241" value="" style="endArrow=none;html=1;rounded=0;entryX=0.5;entryY=0;entryDx=0;entryDy=0;exitX=0.75;exitY=1;exitDx=0;exitDy=0;" edge="1" parent="1" source="PevNx_j6ePKCeGL_cuYu-213" target="PevNx_j6ePKCeGL_cuYu-237">
          <mxGeometry relative="1" as="geometry">
            <mxPoint x="740" y="565" as="sourcePoint" />
            <mxPoint x="900" y="565" as="targetPoint" />
          </mxGeometry>
        </mxCell>
        <mxCell id="PevNx_j6ePKCeGL_cuYu-242" value="" style="endArrow=none;html=1;rounded=0;entryX=0;entryY=0.5;entryDx=0;entryDy=0;exitX=1;exitY=0.5;exitDx=0;exitDy=0;" edge="1" parent="1" source="PevNx_j6ePKCeGL_cuYu-239" target="PevNx_j6ePKCeGL_cuYu-213">
          <mxGeometry relative="1" as="geometry">
            <mxPoint x="590" y="615" as="sourcePoint" />
            <mxPoint x="750" y="615" as="targetPoint" />
          </mxGeometry>
        </mxCell>
        <mxCell id="PevNx_j6ePKCeGL_cuYu-243" value="lease_duration" style="ellipse;whiteSpace=wrap;html=1;align=center;" vertex="1" parent="1">
          <mxGeometry x="510" y="625" width="100" height="40" as="geometry" />
        </mxCell>
        <mxCell id="PevNx_j6ePKCeGL_cuYu-244" value="" style="endArrow=none;html=1;rounded=0;entryX=0.25;entryY=1;entryDx=0;entryDy=0;" edge="1" parent="1" target="PevNx_j6ePKCeGL_cuYu-213">
          <mxGeometry relative="1" as="geometry">
            <mxPoint x="580" y="625" as="sourcePoint" />
            <mxPoint x="740" y="625" as="targetPoint" />
          </mxGeometry>
        </mxCell>
        <mxCell id="PevNx_j6ePKCeGL_cuYu-245" value="start_date" style="ellipse;whiteSpace=wrap;html=1;align=center;dashed=1;" vertex="1" parent="1">
          <mxGeometry x="450" y="695" width="100" height="40" as="geometry" />
        </mxCell>
        <mxCell id="PevNx_j6ePKCeGL_cuYu-246" value="end_date" style="ellipse;whiteSpace=wrap;html=1;align=center;dashed=1;" vertex="1" parent="1">
          <mxGeometry x="560" y="695" width="100" height="40" as="geometry" />
        </mxCell>
        <mxCell id="PevNx_j6ePKCeGL_cuYu-247" value="" style="endArrow=none;html=1;rounded=0;exitX=0.757;exitY=0.061;exitDx=0;exitDy=0;exitPerimeter=0;" edge="1" parent="1" source="PevNx_j6ePKCeGL_cuYu-245">
          <mxGeometry relative="1" as="geometry">
            <mxPoint x="450" y="655" as="sourcePoint" />
            <mxPoint x="550.5" y="662.5" as="targetPoint" />
          </mxGeometry>
        </mxCell>
        <mxCell id="PevNx_j6ePKCeGL_cuYu-248" value="" style="endArrow=none;html=1;rounded=0;entryX=0.5;entryY=0;entryDx=0;entryDy=0;" edge="1" parent="1" target="PevNx_j6ePKCeGL_cuYu-246">
          <mxGeometry relative="1" as="geometry">
            <mxPoint x="550" y="665" as="sourcePoint" />
            <mxPoint x="710" y="665" as="targetPoint" />
          </mxGeometry>
        </mxCell>
        <mxCell id="PevNx_j6ePKCeGL_cuYu-251" value="client" style="ellipse;whiteSpace=wrap;html=1;align=center;" vertex="1" parent="1">
          <mxGeometry x="840" y="635" width="100" height="40" as="geometry" />
        </mxCell>
        <mxCell id="PevNx_j6ePKCeGL_cuYu-252" value="rental_property" style="ellipse;whiteSpace=wrap;html=1;align=center;" vertex="1" parent="1">
          <mxGeometry x="910" y="585" width="100" height="40" as="geometry" />
        </mxCell>
        <mxCell id="PevNx_j6ePKCeGL_cuYu-253" value="partner" style="ellipse;whiteSpace=wrap;html=1;align=center;" vertex="1" parent="1">
          <mxGeometry x="860" y="535" width="100" height="40" as="geometry" />
        </mxCell>
        <mxCell id="PevNx_j6ePKCeGL_cuYu-254" value="" style="endArrow=none;html=1;rounded=0;entryX=0;entryY=0;entryDx=0;entryDy=0;" edge="1" parent="1" target="PevNx_j6ePKCeGL_cuYu-251">
          <mxGeometry relative="1" as="geometry">
            <mxPoint x="740" y="553.5699999999999" as="sourcePoint" />
            <mxPoint x="900" y="553.5699999999999" as="targetPoint" />
          </mxGeometry>
        </mxCell>
        <mxCell id="PevNx_j6ePKCeGL_cuYu-255" value="" style="endArrow=none;html=1;rounded=0;exitX=1;exitY=0.5;exitDx=0;exitDy=0;" edge="1" parent="1" source="PevNx_j6ePKCeGL_cuYu-213">
          <mxGeometry relative="1" as="geometry">
            <mxPoint x="750" y="605" as="sourcePoint" />
            <mxPoint x="910" y="605" as="targetPoint" />
          </mxGeometry>
        </mxCell>
        <mxCell id="PevNx_j6ePKCeGL_cuYu-256" value="" style="endArrow=none;html=1;rounded=0;exitX=1;exitY=0.25;exitDx=0;exitDy=0;" edge="1" parent="1" source="PevNx_j6ePKCeGL_cuYu-213">
          <mxGeometry relative="1" as="geometry">
            <mxPoint x="700" y="555" as="sourcePoint" />
            <mxPoint x="860" y="555" as="targetPoint" />
          </mxGeometry>
        </mxCell>
        <mxCell id="PevNx_j6ePKCeGL_cuYu-259" value="" style="endArrow=none;html=1;rounded=0;exitX=0.5;exitY=1;exitDx=0;exitDy=0;entryX=0.5;entryY=0;entryDx=0;entryDy=0;" edge="1" parent="1" source="PevNx_j6ePKCeGL_cuYu-203" target="PevNx_j6ePKCeGL_cuYu-204">
          <mxGeometry relative="1" as="geometry">
            <mxPoint x="180" y="735" as="sourcePoint" />
            <mxPoint x="340" y="735" as="targetPoint" />
          </mxGeometry>
        </mxCell>
        <mxCell id="PevNx_j6ePKCeGL_cuYu-260" value="" style="endArrow=none;html=1;rounded=0;entryX=0;entryY=0.5;entryDx=0;entryDy=0;exitX=0;exitY=0.75;exitDx=0;exitDy=0;" edge="1" parent="1" source="PevNx_j6ePKCeGL_cuYu-1" target="PevNx_j6ePKCeGL_cuYu-43">
          <mxGeometry relative="1" as="geometry">
            <mxPoint x="-130" y="-355" as="sourcePoint" />
            <mxPoint x="-130" y="-275" as="targetPoint" />
            <Array as="points">
              <mxPoint x="-130" y="-355" />
            </Array>
          </mxGeometry>
        </mxCell>
        <mxCell id="PevNx_j6ePKCeGL_cuYu-263" value="Supervisor" style="text;html=1;strokeColor=none;fillColor=none;align=center;verticalAlign=middle;whiteSpace=wrap;rounded=0;" vertex="1" parent="1">
          <mxGeometry x="-210" y="-270" width="80" height="20" as="geometry" />
        </mxCell>
        <mxCell id="PevNx_j6ePKCeGL_cuYu-264" value="Supervisee" style="text;html=1;strokeColor=none;fillColor=none;align=center;verticalAlign=middle;whiteSpace=wrap;rounded=0;" vertex="1" parent="1">
          <mxGeometry x="7.5" y="-270" width="80" height="20" as="geometry" />
        </mxCell>
        <mxCell id="PevNx_j6ePKCeGL_cuYu-265" value="1" style="text;html=1;strokeColor=none;fillColor=none;align=center;verticalAlign=middle;whiteSpace=wrap;rounded=0;" vertex="1" parent="1">
          <mxGeometry x="-160" y="-190" width="40" height="20" as="geometry" />
        </mxCell>
        <mxCell id="PevNx_j6ePKCeGL_cuYu-269" value="N" style="text;html=1;strokeColor=none;fillColor=none;align=center;verticalAlign=middle;whiteSpace=wrap;rounded=0;" vertex="1" parent="1">
          <mxGeometry y="-190" width="40" height="20" as="geometry" />
        </mxCell>
      </root>
    </mxGraphModel>
  </diagram>
</mxfile>
